<?xml version="1.0" encoding="utf-8"?>
<!-- Generator: Adobe Illustrator 26.5.0, SVG Export Plug-In . SVG Version: 6.00 Build 0)  -->
<svg version="1.1" xmlns="http://www.w3.org/2000/svg" xmlns:xlink="http://www.w3.org/1999/xlink" x="0px" y="0px"
	 viewBox="0 0 147.39 142.67" style="enable-background:new 0 0 147.39 142.67;" xml:space="preserve">
<style type="text/css">
	.st0{fill:#FFFFFF;}
	.st1{fill:#E30613;}
	.st2{fill:none;stroke:#E30613;stroke-width:3;}
	.st3{display:none;}
	.st4{display:inline;}
	.st5{fill:none;}
</style>
<g id="Vector">
	<g>
		<path class="st0" d="M113.18,135.5H32.93c-12.86,0-23.37-10.52-23.37-23.37V31.87C9.55,19.02,20.07,8.5,32.93,8.5h80.25
			c12.86,0,23.37,10.52,23.37,23.37v80.25C136.55,124.98,126.03,135.5,113.18,135.5z"/>
		<g>
			<path class="st1" d="M96.48,92.81c-0.35,0-0.69,0.05-1.03,0.09v-0.09h-7.08v-4.73c0-2.45-1.62-6.08-6.08-6.08H63.82
				c-2.45,0-6.08,1.62-6.08,6.08v4.73h-8.11c-4.27,0-7.72,3.14-7.72,7v26.07h7.72h45.82h8.75V99.81
				C104.2,95.94,100.74,92.81,96.48,92.81z M60.67,88.08c0-0.73,0.23-3.11,3.16-3.15h18.46c0.73,0,3.11,0.23,3.15,3.15v4.73H60.67
				V88.08z"/>
			<polygon class="st0" points="76.2,106.66 76.2,99.16 70.83,99.16 70.83,106.66 63.33,106.66 63.33,112.03 70.83,112.03 
				70.83,119.53 76.2,119.53 76.2,112.03 83.7,112.03 83.7,106.66 			"/>
		</g>
		<g>
			<path class="st2" d="M32.23,8.5c0,0-22.68,0-22.68,22.68v81.65c0,0,0,22.68,22.68,22.68h81.65c0,0,22.68,0,22.68-22.68V31.18
				c0,0,0-22.68-22.68-22.68H32.23L32.23,8.5z"/>
		</g>
		<g>
			<path class="st1" d="M23.67,19.95h4.07l3.31,5.38l3.31-5.38h4.07v13.89H34.6v-7.97l-3.55,5.44h-0.08l-3.53-5.42v7.95h-3.77V19.95
				z"/>
			<path class="st1" d="M40.42,26.94V26.9c0-3.99,3.21-7.22,7.5-7.22s7.46,3.19,7.46,7.18v0.04c0,3.99-3.21,7.22-7.5,7.22
				S40.42,30.92,40.42,26.94z M51.43,26.94V26.9c0-2.02-1.43-3.75-3.55-3.75s-3.53,1.71-3.53,3.71v0.04c0,2,1.45,3.75,3.57,3.75
				C50.02,30.64,51.43,28.94,51.43,26.94z"/>
			<path class="st1" d="M57.36,19.95h11.17v3.25h-7.36v2.12h6.67v3.04h-6.67v2.2h7.46v3.27H57.36V19.95z"/>
			<path class="st1" d="M73.99,23.33h-4.15v-3.37h12.16v3.37h-4.17v10.51h-3.85V23.33z"/>
			<path class="st1" d="M89.28,19.95h3.85v13.89h-3.85V19.95z"/>
			<path class="st1" d="M95.67,19.95h3.85v5.63l4.8-5.63h4.54l-5.26,5.95l5.43,7.93h-4.6l-3.51-5.16l-1.41,1.55v3.61h-3.85V19.95z"
				/>
			<path class="st1" d="M23.67,39.95h3.59l5.71,7.34v-7.34h3.81v13.89h-3.35l-5.95-7.62v7.62h-3.81V39.95z"/>
			<path class="st1" d="M44.03,39.85h3.71l5.91,13.98h-4.13l-0.99-2.5h-5.38l-0.99,2.5h-4.03L44.03,39.85z M47.4,48.34l-1.55-3.93
				l-1.57,3.93H47.4z"/>
			<path class="st1" d="M59.8,39.85h3.71l5.91,13.98h-4.13l-0.99-2.5h-5.38l-0.99,2.5h-4.03L59.8,39.85z M63.17,48.34l-1.55-3.93
				l-1.57,3.93H63.17z"/>
			<path class="st1" d="M70.76,39.95h6.57c2.12,0,3.59,0.56,4.52,1.49c0.81,0.81,1.23,1.86,1.23,3.23v0.04
				c0,2.14-1.13,3.55-2.86,4.29l3.31,4.84h-4.42l-2.8-4.21h-1.71v4.21h-3.85V39.95z M77.17,46.62c1.29,0,2.06-0.63,2.06-1.65v-0.04
				c0-1.11-0.81-1.67-2.08-1.67h-2.54v3.35H77.17z"/>
			<path class="st1" d="M90.51,39.95h5.38c4.94,0,7.82,2.86,7.82,6.86v0.04c0,4.01-2.92,6.98-7.89,6.98h-5.3V39.95z M94.36,43.34
				v7.08h1.57c2.32,0,3.85-1.27,3.85-3.51v-0.04c0-2.22-1.53-3.53-3.85-3.53H94.36z"/>
			<path class="st1" d="M105.7,39.95h11.17v3.25h-7.36v2.12h6.67v3.04h-6.67v2.2h7.46v3.27H105.7V39.95z"/>
			<path class="st1" d="M23.67,59.95h5.38c4.94,0,7.82,2.86,7.82,6.86v0.04c0,4.01-2.92,6.98-7.89,6.98h-5.3V59.95z M27.51,63.34
				v7.08h1.57c2.32,0,3.85-1.27,3.85-3.51v-0.04c0-2.22-1.53-3.53-3.85-3.53H27.51z"/>
			<path class="st1" d="M38.4,66.94V66.9c0-3.99,3.21-7.22,7.5-7.22s7.46,3.19,7.46,7.18v0.04c0,3.99-3.21,7.22-7.5,7.22
				S38.4,70.92,38.4,66.94z M49.41,66.94V66.9c0-2.02-1.43-3.75-3.55-3.75s-3.53,1.71-3.53,3.71v0.04c0,2,1.45,3.75,3.57,3.75
				C48,70.64,49.41,68.94,49.41,66.94z"/>
			<path class="st1" d="M55.33,59.95h3.85v5.63l4.8-5.63h4.54l-5.26,5.95l5.44,7.93h-4.6l-3.51-5.16l-1.41,1.55v3.61h-3.85V59.95z"
				/>
			<path class="st1" d="M73.2,63.33h-4.15v-3.37h12.16v3.37h-4.17v10.51H73.2V63.33z"/>
			<path class="st1" d="M82.9,59.95h11.17v3.25h-7.36v2.12h6.67v3.04h-6.67v2.2h7.46v3.27H82.9V59.95z"/>
			<path class="st1" d="M96.14,59.95h6.57c2.12,0,3.59,0.56,4.52,1.49c0.81,0.81,1.23,1.86,1.23,3.23v0.04
				c0,2.14-1.13,3.55-2.86,4.29l3.31,4.84h-4.42l-2.8-4.2h-1.71v4.2h-3.85V59.95z M102.55,66.62c1.29,0,2.06-0.63,2.06-1.65v-0.04
				c0-1.11-0.81-1.67-2.08-1.67h-2.54v3.35H102.55z"/>
			<path class="st1" d="M112.46,65.98l0.18-0.16c2.3-0.2,3.11-0.75,3.11-1.59V64.2c0-0.67-0.56-1.09-1.51-1.09
				c-0.93,0-1.94,0.48-2.9,1.31l-1.98-2.6c1.21-1.21,2.86-2.08,5.14-2.08c2.92,0,4.96,1.57,4.96,4.17v0.04
				c0,2.5-1.67,3.55-3.87,4.11l-0.24,1.27h-2.38L112.46,65.98z M112.15,70.47h3.91v3.37h-3.91V70.47z"/>
		</g>
	</g>
</g>
<g id="Text" class="st3">
	<g class="st4">
		<path class="st1" d="M96.48,92.81c-0.35,0-0.69,0.05-1.03,0.09v-0.09h-7.08v-4.73c0-2.45-1.62-6.08-6.08-6.08H63.82
			c-2.45,0-6.08,1.62-6.08,6.08v4.73h-8.11c-4.27,0-7.72,3.14-7.72,7v26.07h7.72h45.82h8.75V99.81
			C104.2,95.94,100.74,92.81,96.48,92.81z M60.67,88.08c0-0.73,0.23-3.11,3.16-3.15h18.46c0.73,0,3.11,0.23,3.15,3.15v4.73H60.67
			V88.08z"/>
		<polygon class="st0" points="76.2,106.66 76.2,99.16 70.83,99.16 70.83,106.66 63.33,106.66 63.33,112.03 70.83,112.03 
			70.83,119.53 76.2,119.53 76.2,112.03 83.7,112.03 83.7,106.66 		"/>
	</g>
	<g class="st4">
		<path class="st2" d="M32.23,8.5c0,0-22.68,0-22.68,22.68v81.65c0,0,0,22.68,22.68,22.68h81.65c0,0,22.68,0,22.68-22.68V31.18
			c0,0,0-22.68-22.68-22.68H32.23L32.23,8.5z"/>
	</g>
	<g class="st4">
		<rect x="22.44" y="19.36" class="st5" width="105.95" height="62.64"/>
		<path class="st1" d="M35.21,27.57c-0.1-1.86-0.22-4.11-0.2-5.77h-0.06c-0.46,1.57-1.01,3.23-1.69,5.08l-2.36,6.49H29.6l-2.16-6.37
			c-0.63-1.88-1.17-3.61-1.55-5.2h-0.04c-0.04,1.67-0.14,3.91-0.26,5.91l-0.36,5.73h-1.65l0.93-13.37h2.2L29,26.54
			c0.56,1.65,1.01,3.11,1.35,4.5h0.06c0.34-1.35,0.81-2.82,1.41-4.5l2.38-6.47h2.2l0.83,13.37h-1.69L35.21,27.57z"/>
		<path class="st1" d="M51.31,26.62c0,4.6-2.8,7.04-6.21,7.04c-3.53,0-6.01-2.74-6.01-6.78c0-4.25,2.64-7.02,6.21-7.02
			C48.95,19.85,51.31,22.65,51.31,26.62z M40.94,26.84c0,2.86,1.55,5.42,4.26,5.42c2.74,0,4.28-2.52,4.28-5.55
			c0-2.66-1.39-5.44-4.26-5.44C42.37,21.26,40.94,23.9,40.94,26.84z"/>
		<path class="st1" d="M60.47,27.17h-5.2v4.82h5.79v1.45h-7.52V20.07h7.22v1.45h-5.49v4.23h5.2V27.17z"/>
		<path class="st1" d="M65.84,21.54h-4.07v-1.47h9.9v1.47h-4.09v11.9h-1.75V21.54z"/>
		<path class="st1" d="M79.09,20.07v13.37h-1.73V20.07H79.09z"/>
		<path class="st1" d="M82.1,20.07h1.73v6.45h0.06c0.36-0.52,0.71-0.99,1.05-1.43l4.09-5.02h2.14l-4.84,5.67l5.22,7.7H89.5
			l-4.4-6.57l-1.27,1.47v5.1H82.1V20.07z"/>
		<path class="st1" d="M23.94,53.44V40.07h1.88l4.28,6.76c0.99,1.57,1.77,2.98,2.4,4.34l0.04-0.02c-0.16-1.79-0.2-3.41-0.2-5.49
			v-5.59h1.63v13.37h-1.75l-4.25-6.78c-0.93-1.49-1.82-3.02-2.5-4.46l-0.06,0.02c0.1,1.69,0.14,3.29,0.14,5.51v5.71H23.94z"/>
		<path class="st1" d="M39.15,49.24l-1.39,4.21h-1.79l4.54-13.37h2.08l4.56,13.37h-1.84l-1.43-4.21H39.15z M43.54,47.89l-1.31-3.85
			c-0.3-0.87-0.5-1.67-0.69-2.44h-0.04c-0.2,0.79-0.42,1.61-0.67,2.42l-1.31,3.87H43.54z"/>
		<path class="st1" d="M51.29,49.24l-1.39,4.21h-1.79l4.54-13.37h2.08l4.56,13.37h-1.84l-1.43-4.21H51.29z M55.67,47.89l-1.31-3.85
			c-0.3-0.87-0.5-1.67-0.69-2.44h-0.04c-0.2,0.79-0.42,1.61-0.67,2.42l-1.31,3.87H55.67z"/>
		<path class="st1" d="M61.26,40.25c0.87-0.18,2.12-0.28,3.31-0.28c1.84,0,3.03,0.34,3.87,1.09c0.67,0.6,1.05,1.51,1.05,2.54
			c0,1.77-1.11,2.94-2.52,3.41v0.06c1.03,0.36,1.65,1.31,1.96,2.7c0.44,1.86,0.75,3.15,1.03,3.67h-1.79
			c-0.22-0.38-0.52-1.53-0.89-3.19c-0.4-1.84-1.11-2.54-2.68-2.6h-1.63v5.79h-1.73V40.25z M62.99,46.34h1.77
			c1.85,0,3.02-1.01,3.02-2.54c0-1.73-1.25-2.48-3.07-2.5c-0.83,0-1.43,0.08-1.71,0.16V46.34z"/>
		<path class="st1" d="M76.14,40.25c1.05-0.16,2.3-0.28,3.67-0.28c2.48,0,4.25,0.58,5.42,1.67c1.19,1.09,1.88,2.64,1.88,4.8
			c0,2.18-0.67,3.97-1.92,5.2c-1.25,1.25-3.31,1.92-5.91,1.92c-1.23,0-2.26-0.06-3.13-0.16V40.25z M77.86,52.07
			c0.44,0.08,1.07,0.1,1.75,0.1c3.69,0,5.69-2.06,5.69-5.67c0.02-3.15-1.77-5.16-5.42-5.16c-0.89,0-1.57,0.08-2.02,0.18V52.07z"/>
		<path class="st1" d="M96.26,47.17h-5.2v4.82h5.79v1.45h-7.52V40.07h7.22v1.45h-5.49v4.23h5.2V47.17z"/>
		<path class="st1" d="M23.94,60.25c1.05-0.16,2.3-0.28,3.67-0.28c2.48,0,4.25,0.58,5.42,1.67c1.19,1.09,1.88,2.64,1.88,4.8
			c0,2.18-0.67,3.97-1.92,5.2c-1.25,1.25-3.31,1.92-5.91,1.92c-1.23,0-2.26-0.06-3.13-0.16V60.25z M25.67,72.07
			c0.44,0.08,1.07,0.1,1.75,0.1c3.69,0,5.69-2.06,5.69-5.67c0.02-3.15-1.77-5.16-5.42-5.16c-0.89,0-1.57,0.08-2.02,0.18V72.07z"/>
		<path class="st1" d="M48.58,66.62c0,4.6-2.8,7.04-6.21,7.04c-3.53,0-6.01-2.74-6.01-6.78c0-4.25,2.64-7.02,6.21-7.02
			C46.22,59.85,48.58,62.65,48.58,66.62z M38.2,66.84c0,2.86,1.55,5.42,4.26,5.42c2.74,0,4.28-2.52,4.28-5.55
			c0-2.66-1.39-5.44-4.26-5.44C39.63,61.26,38.2,63.9,38.2,66.84z"/>
		<path class="st1" d="M50.81,60.07h1.73v6.45h0.06c0.36-0.52,0.71-0.99,1.05-1.43l4.09-5.02h2.14l-4.84,5.67l5.22,7.7h-2.04
			l-4.4-6.57l-1.27,1.47v5.1h-1.73V60.07z"/>
		<path class="st1" d="M64.1,61.54h-4.07v-1.47h9.9v1.47h-4.09v11.9H64.1V61.54z"/>
		<path class="st1" d="M78.34,67.17h-5.2v4.82h5.79v1.45h-7.52V60.07h7.22v1.45h-5.5v4.23h5.2V67.17z"/>
		<path class="st1" d="M81.17,60.25c0.87-0.18,2.12-0.28,3.31-0.28c1.84,0,3.04,0.34,3.87,1.09c0.67,0.6,1.05,1.51,1.05,2.54
			c0,1.77-1.11,2.94-2.52,3.41v0.06c1.03,0.36,1.65,1.31,1.96,2.7c0.44,1.86,0.75,3.15,1.03,3.67h-1.79
			c-0.22-0.38-0.52-1.53-0.89-3.19c-0.4-1.84-1.11-2.54-2.68-2.6H82.9v5.79h-1.73V60.25z M82.9,66.34h1.77
			c1.84,0,3.02-1.01,3.02-2.54c0-1.73-1.25-2.48-3.08-2.5c-0.83,0-1.43,0.08-1.71,0.16V66.34z"/>
		<path class="st1" d="M93.13,69.65l-0.04-0.52c-0.12-1.07,0.24-2.24,1.23-3.43c0.89-1.05,1.39-1.82,1.39-2.72
			c0-1.01-0.63-1.69-1.88-1.71c-0.71,0-1.51,0.24-2,0.61l-0.48-1.25c0.66-0.48,1.79-0.79,2.84-0.79c2.28,0,3.31,1.41,3.31,2.92
			c0,1.35-0.75,2.32-1.71,3.45c-0.87,1.03-1.19,1.9-1.13,2.92l0.02,0.52H93.13z M92.69,72.43c0-0.73,0.5-1.25,1.19-1.25
			s1.17,0.52,1.17,1.25c0,0.69-0.46,1.23-1.19,1.23C93.17,73.66,92.69,73.12,92.69,72.43z"/>
	</g>
</g>
</svg>
